<svg width="120" height="120" viewBox="0 0 120 120" fill="none" xmlns="http://www.w3.org/2000/svg">
<circle cx="60" cy="60" r="59.5" fill="white" stroke="#EFF2F7"/>
<path fill-rule="evenodd" clip-rule="evenodd" d="M59.8142 52.4839L67.5146 60.1844L60.1826 67.5164L52.4822 59.8159L59.8142 52.4839ZM51.919 44.5888L47.0911 39.7609C46.8158 39.4855 46.8158 39.039 47.0911 38.7636L53.989 31.8658C54.2644 31.5904 54.7109 31.5904 54.9863 31.8658L78.5678 55.4473C81.184 58.0635 81.184 62.3052 78.5678 64.9215L68.0777 75.4115L72.9056 80.2394C73.181 80.5148 73.181 80.9613 72.9056 81.2367L66.0078 88.1346C65.7324 88.4099 65.2859 88.4099 65.0105 88.1346L41.429 64.553C38.8127 61.9368 38.8127 57.6951 41.429 55.0789L51.919 44.5888Z" fill="#0E141C"/>
</svg>
