<svg width="120" height="120" viewBox="0 0 120 120" fill="none" xmlns="http://www.w3.org/2000/svg">
<circle cx="60" cy="60" r="59.5" fill="white" stroke="#EFF2F7"/>
<path fill-rule="evenodd" clip-rule="evenodd" d="M54.5036 35.8849C52.5361 35.8849 50.9412 37.4799 50.9412 39.4474V50.5742H39.6093C37.6418 50.5742 36.0469 52.1691 36.0469 54.1366V80.4023C36.0469 82.3698 37.6418 83.9647 39.6093 83.9647H65.5629C67.5304 83.9647 69.1253 82.3698 69.1253 80.4023V69.2755H80.4573C82.4247 69.2755 84.0197 67.6805 84.0197 65.7131V39.4474C84.0197 37.4799 82.4247 35.8849 80.4573 35.8849H54.5036ZM69.1253 69.2755V54.1366C69.1253 52.1691 67.5304 50.5742 65.5629 50.5742H50.9412V65.7131C50.9412 67.6805 52.5361 69.2755 54.5036 69.2755H69.1253Z" fill="#146EF5"/>
</svg>
