<?xml version="1.0" encoding="utf-8"?>
<!-- Generator: Adobe Illustrator 24.1.0, SVG Export Plug-In . SVG Version: 6.00 Build 0)  -->
<svg version="1.1" id="Layer_1" xmlns="http://www.w3.org/2000/svg" xmlns:xlink="http://www.w3.org/1999/xlink" x="0px" y="0px"
	 viewBox="0 0 285.5 285.5" style="enable-background:new 0 0 285.5 285.5;" xml:space="preserve">
<style type="text/css">
	.st0{fill:#9DAABA;}
</style>
<path class="st0" d="M142.8,285.5C64,285.5,0,221.5,0,142.8C0,64,64,0,142.8,0c78.7,0,142.8,64,142.8,142.8
	C285.5,221.5,221.5,285.5,142.8,285.5z M142.8,2.4C65.3,2.4,2.4,65.3,2.4,142.8c0,77.4,63,140.4,140.4,140.4
	c77.4,0,140.4-63,140.4-140.4C283.2,65.3,220.2,2.4,142.8,2.4z M224.8,205.2c-0.9,1.3-1.5,2.6-1.9,4c-0.3,1.4-0.3,2.6,0.1,3.8
	c0.4,1.2,1.2,2.3,2.4,3.1c0.9,0.6,1.7,1,2.6,1.1c0.8,0.1,1.6,0,2.3-0.2c0.7-0.2,1.4-0.6,1.9-0.9c0.6-0.4,1.1-0.7,1.5-1.1l3.5-2.8
	c0.5-0.4,0.9-0.7,1.5-1.1c0.5-0.3,1.1-0.5,1.7-0.6c0.6-0.1,1.1,0.1,1.7,0.5c0.6,0.4,1,0.9,1.1,1.6c0.2,0.7,0.2,1.4,0,2.2
	c-0.2,0.8-0.6,1.6-1.1,2.3c-0.8,1.2-1.9,2-3.2,2.4c-1.3,0.4-2.6,0.3-3.8-0.3l-1.3,2.7c1.9,0.9,3.8,1,5.7,0.4
	c1.9-0.6,3.5-1.8,4.8-3.6c0.9-1.2,1.5-2.5,1.8-3.7c0.3-1.3,0.2-2.5-0.1-3.6c-0.4-1.1-1.1-2.1-2.2-2.9c-0.9-0.6-1.8-1-2.7-1
	c-0.9,0-1.7,0.1-2.5,0.5c-0.8,0.4-1.5,0.8-2.2,1.4l-4.8,3.7c-0.7,0.5-1.4,0.9-2.2,1.1c-0.8,0.3-1.6,0.1-2.4-0.5
	c-0.7-0.5-1.1-1.1-1.3-1.8c-0.2-0.7-0.2-1.5,0-2.4c0.2-0.9,0.6-1.7,1.2-2.5c0.9-1.3,2-2.2,3.4-2.7c1.3-0.5,2.7-0.4,4.1,0.1l1.3-2.6
	c-1.3-0.6-2.6-0.9-3.9-0.8c-1.3,0.1-2.6,0.5-3.8,1.2C226.8,202.9,225.7,203.9,224.8,205.2z M211.1,221c-2,1.8-3.1,3.7-3.5,5.9
	c-0.4,2.1,0,4.3,1,6.4l2.6-1.4c-0.8-1.6-1.1-3.1-0.8-4.6c0.2-1.5,1-2.9,2.5-4.2c1.3-1.1,2.6-1.8,3.9-2c1.4-0.2,2.7,0,4.1,0.7
	c1.3,0.6,2.6,1.6,3.8,3c1.2,1.4,2.1,2.7,2.6,4.1c0.5,1.4,0.6,2.8,0.3,4.1c-0.3,1.3-1.1,2.6-2.4,3.7c-1.4,1.3-2.9,2-4.4,2
	c-1.5,0.1-3.1-0.3-4.5-1.3l-1.6,2.5c2,1.2,4.1,1.8,6.2,1.6c2.2-0.1,4.2-1.1,6.2-2.9c1.7-1.5,2.8-3.2,3.3-5c0.5-1.8,0.5-3.6-0.1-5.5
	c-0.6-1.9-1.7-3.7-3.2-5.4c-1.6-1.7-3.3-3-5.1-3.7c-1.8-0.8-3.6-1-5.5-0.7C214.5,218.6,212.7,219.5,211.1,221z M200.7,230.6
	l-2.4,1.4l4.2,7.3l-5.8,3.3l-7.7-5.3l-2.8,1.6l8.3,5.6c-0.8,1.1-1.3,2.3-1.3,3.7c0,1.3,0.4,2.7,1.1,4c0.9,1.6,2.1,2.7,3.6,3.3
	c1.5,0.7,3.1,0.7,4.8,0c0.3-0.1,0.6-0.2,0.8-0.4c0.3-0.1,0.5-0.2,0.7-0.4l7.8-4.5L200.7,230.6z M203.8,241.6l4.5,7.8l-5.3,3
	c-0.2,0.1-0.4,0.2-0.6,0.3c-0.2,0.1-0.5,0.2-0.7,0.3c-1.1,0.3-2,0.2-2.9-0.3c-0.8-0.5-1.5-1.2-2-2c-0.5-0.8-0.7-1.7-0.7-2.7
	c0-1,0.4-1.8,1.2-2.6c0.2-0.2,0.4-0.3,0.6-0.5c0.2-0.1,0.4-0.3,0.6-0.4L203.8,241.6z M173.6,243.2c-2.2,0.7-3.9,1.7-5.1,3.2
	c-1.2,1.4-1.9,3.1-2.2,5.1c-0.2,1.9,0,4,0.7,6.3c0.7,2.2,1.7,4.1,3,5.5c1.3,1.5,2.9,2.4,4.7,2.9s3.8,0.4,6-0.3
	c2.2-0.7,3.8-1.7,5.1-3.2c1.2-1.4,1.9-3.1,2.2-5.1c0.2-1.9,0-4-0.7-6.3c-0.7-2.2-1.7-4.1-3-5.5c-1.3-1.5-2.9-2.4-4.7-2.9
	C177.8,242.4,175.8,242.5,173.6,243.2z M174.4,245.7c1.6-0.5,3.1-0.6,4.4-0.2c1.3,0.4,2.4,1.2,3.4,2.3c1,1.1,1.7,2.6,2.2,4.3
	c0.5,1.7,0.7,3.4,0.6,4.8c-0.1,1.5-0.6,2.8-1.5,3.8c-0.8,1.1-2.1,1.9-3.7,2.4c-1.6,0.5-3.1,0.6-4.4,0.2c-1.3-0.4-2.4-1.2-3.4-2.3
	c-1-1.1-1.7-2.6-2.3-4.3c-0.5-1.7-0.8-3.3-0.6-4.8c0.1-1.5,0.6-2.8,1.5-3.8C171.6,247,172.8,246.2,174.4,245.7z M159.5,247.4
	l-13.3,1.5l0.3,2.7l10.5-1.2l2.3,20l2.8-0.3L159.5,247.4z M143.8,248.9l-13.4-0.6l-0.1,2.7l10.5,0.4l-0.8,20.1l2.8,0.1L143.8,248.9z
	 M118.7,246.5l-6.7-2.2c-0.2-0.1-0.6-0.2-1.1-0.4c-0.6-0.2-1.1-0.3-1.6-0.4c-1.7-0.3-3.3-0.2-4.8,0.4c-1.5,0.6-2.7,1.6-3.8,2.9
	c-1.1,1.3-1.9,2.9-2.6,4.8c-0.6,1.8-0.9,3.6-0.8,5.3c0.1,1.7,0.5,3.3,1.3,4.6c0.8,1.4,2,2.5,3.6,3.2c0.5,0.2,1,0.5,1.5,0.7
	c0.5,0.2,0.9,0.3,1.1,0.4l6.6,2.2L118.7,246.5z M115.1,248.1l-5.5,16.5l-3.9-1.3c-0.4-0.1-0.8-0.3-1.2-0.5c-0.5-0.2-0.9-0.4-1.2-0.6
	c-1.1-0.6-1.9-1.4-2.4-2.4c-0.5-1-0.7-2.1-0.6-3.4c0-1.3,0.3-2.6,0.7-3.9c0.4-1.3,1-2.5,1.8-3.5c0.7-1,1.6-1.8,2.6-2.3
	c1-0.5,2.1-0.7,3.4-0.5c0.4,0,0.8,0.1,1.3,0.3c0.5,0.1,0.9,0.3,1.3,0.4L115.1,248.1z M90.2,234c-1.9-1.2-3.8-1.8-5.7-1.7
	c-1.9,0-3.6,0.6-5.2,1.7c-1.6,1.1-3,2.6-4.3,4.6c-1.2,2-1.9,4-2.2,5.9c-0.2,1.9,0.1,3.8,0.9,5.4c0.8,1.7,2.2,3.1,4.2,4.3
	c1.9,1.2,3.8,1.8,5.7,1.7c1.9,0,3.6-0.6,5.2-1.7c1.6-1.1,3-2.6,4.3-4.6c1.2-2,1.9-4,2.2-5.9c0.2-1.9-0.1-3.8-0.9-5.4
	C93.5,236.6,92.1,235.2,90.2,234z M88.8,236.3c1.4,0.9,2.5,2,3,3.2c0.6,1.2,0.7,2.6,0.5,4.1c-0.2,1.5-0.8,3-1.8,4.5
	c-1,1.6-2,2.8-3.2,3.7c-1.2,0.9-2.5,1.4-3.8,1.4c-1.4,0.1-2.8-0.3-4.2-1.2c-1.4-0.9-2.4-2-3-3.2c-0.6-1.2-0.7-2.6-0.5-4.1
	c0.2-1.5,0.8-3,1.8-4.5c0.9-1.5,2-2.8,3.2-3.7c1.2-0.9,2.5-1.4,3.8-1.4C85.9,235,87.3,235.4,88.8,236.3z M74.8,223.9l-1.9-2
	l-16.4,8.6l9.3-16l-1.9-2l-21,11l2,2.1l16.5-8.8l-9.5,16.1l2.1,2.1l16.5-8.8l-9.5,16.1l2,2.1L74.8,223.9z M58.2,205.6l-1.4-2.5
	l-15.5,8.7l9.7-19.1l-1.4-2.5l-19.8,11.2l1.4,2.5l15.5-8.7L37,214.3l1.4,2.5L58.2,205.6z M56.4,91.9c0.9-1.3,1.4-2.7,1.7-4
	c0.3-1.4,0.2-2.6-0.3-3.8c-0.4-1.2-1.3-2.2-2.5-3c-0.9-0.6-1.8-0.9-2.6-1c-0.8-0.1-1.6,0.1-2.3,0.3c-0.7,0.3-1.3,0.6-1.9,1
	c-0.6,0.4-1,0.8-1.4,1.1l-3.4,3c-0.4,0.4-0.9,0.8-1.4,1.1c-0.5,0.4-1.1,0.6-1.7,0.7c-0.6,0.1-1.2,0-1.7-0.4c-0.6-0.4-1-0.9-1.2-1.6
	c-0.2-0.7-0.3-1.4-0.1-2.2c0.2-0.8,0.5-1.6,1-2.4c0.8-1.2,1.8-2,3.1-2.5c1.3-0.5,2.5-0.4,3.8,0.1l1.2-2.8c-2-0.8-3.9-0.8-5.7-0.2
	c-1.8,0.7-3.4,1.9-4.6,3.9c-0.8,1.3-1.4,2.5-1.6,3.8c-0.2,1.3-0.1,2.5,0.3,3.6c0.4,1.1,1.2,2,2.3,2.7c0.9,0.6,1.8,0.9,2.7,0.9
	c0.9,0,1.7-0.2,2.5-0.6c0.8-0.4,1.5-0.9,2.2-1.5l4.6-3.9c0.6-0.6,1.3-1,2.1-1.2c0.8-0.3,1.6-0.2,2.4,0.4c0.7,0.4,1.2,1,1.4,1.8
	c0.2,0.7,0.3,1.5,0.1,2.4c-0.2,0.9-0.5,1.7-1.1,2.6c-0.9,1.3-1.9,2.3-3.2,2.8c-1.3,0.5-2.7,0.6-4.1,0.1L45.7,96
	c1.3,0.5,2.6,0.7,3.9,0.6c1.3-0.2,2.5-0.6,3.7-1.4C54.5,94.4,55.5,93.3,56.4,91.9z M69.3,75.5c1.9-1.9,2.9-3.9,3.2-6
	c0.3-2.2-0.2-4.3-1.3-6.3l-2.6,1.5c0.9,1.5,1.2,3.1,1.1,4.6c-0.2,1.5-0.9,3-2.3,4.3c-1.2,1.2-2.5,1.9-3.8,2.2
	c-1.3,0.3-2.7,0.1-4.1-0.5c-1.4-0.6-2.7-1.5-4-2.8c-1.3-1.3-2.2-2.6-2.8-4c-0.6-1.4-0.7-2.7-0.5-4.1c0.3-1.3,1-2.6,2.2-3.8
	c1.4-1.4,2.8-2.1,4.3-2.3c1.5-0.2,3.1,0.2,4.6,1.1l1.5-2.6c-2.1-1.2-4.2-1.6-6.3-1.3c-2.1,0.3-4.2,1.3-6,3.2c-1.6,1.6-2.6,3.3-3,5.1
	c-0.4,1.8-0.3,3.7,0.4,5.5c0.7,1.8,1.8,3.6,3.5,5.2c1.7,1.7,3.4,2.8,5.2,3.5c1.8,0.7,3.7,0.8,5.5,0.4C66,78.1,67.7,77.1,69.3,75.5z
	 M79.2,65.5l2.4-1.5L77,56.9l5.6-3.6l8,4.9l2.7-1.7l-8.6-5.2c0.8-1.1,1.2-2.4,1.1-3.7c-0.1-1.3-0.5-2.6-1.3-3.9
	c-1-1.5-2.2-2.6-3.7-3.2c-1.5-0.6-3.1-0.5-4.8,0.2c-0.3,0.1-0.5,0.2-0.8,0.4c-0.3,0.1-0.5,0.3-0.7,0.4l-7.6,4.8L79.2,65.5z
	 M75.6,54.7l-4.8-7.6l5.1-3.3c0.2-0.1,0.4-0.2,0.6-0.3c0.2-0.1,0.5-0.2,0.7-0.3c1.1-0.4,2-0.3,2.9,0.1c0.9,0.5,1.6,1.1,2.1,1.9
	c0.5,0.8,0.8,1.7,0.8,2.7c0.1,1-0.3,1.9-1.1,2.7c-0.2,0.2-0.4,0.3-0.6,0.5c-0.2,0.2-0.4,0.3-0.6,0.4L75.6,54.7z M105.7,51.7
	c2.1-0.8,3.8-1.9,4.9-3.4c1.1-1.5,1.8-3.2,1.9-5.2c0.2-2-0.2-4-1-6.2c-0.8-2.2-1.9-4-3.3-5.4c-1.4-1.4-3-2.3-4.8-2.7
	c-1.8-0.4-3.8-0.2-5.9,0.6c-2.1,0.8-3.8,1.9-4.9,3.4c-1.1,1.5-1.8,3.2-1.9,5.2c-0.2,2,0.2,4,1,6.2c0.8,2.2,1.9,4,3.3,5.4
	c1.4,1.4,3,2.3,4.8,2.7C101.6,52.6,103.5,52.5,105.7,51.7z M104.7,49.1c-1.6,0.6-3.1,0.7-4.4,0.4c-1.3-0.3-2.5-1-3.5-2.1
	c-1-1.1-1.8-2.5-2.4-4.2c-0.6-1.7-0.9-3.3-0.9-4.8c0.1-1.5,0.5-2.8,1.3-3.9c0.8-1.1,2-2,3.6-2.5s3.1-0.7,4.4-0.4
	c1.3,0.3,2.5,1,3.5,2.1c1,1.1,1.8,2.5,2.5,4.2c0.6,1.7,0.9,3.3,0.9,4.8c0,1.5-0.5,2.8-1.3,3.9C107.5,47.7,106.3,48.6,104.7,49.1z
	 M119.6,46.8l13.2-2.1l-0.4-2.6l-10.4,1.7l-3.2-19.8l-2.8,0.4L119.6,46.8z M135.2,44.5l13.4-0.1l0-2.7L138,41.9l-0.1-20.1l-2.8,0
	L135.2,44.5z M160.4,45.8l6.7,1.9c0.2,0.1,0.6,0.2,1.2,0.3c0.6,0.2,1.1,0.3,1.6,0.3c1.8,0.3,3.3,0,4.8-0.6c1.4-0.7,2.7-1.7,3.7-3.1
	c1-1.4,1.8-3,2.3-4.9c0.5-1.9,0.7-3.7,0.6-5.4c-0.1-1.7-0.6-3.2-1.5-4.6c-0.8-1.3-2.1-2.4-3.7-3.1c-0.5-0.2-1-0.4-1.6-0.6
	c-0.6-0.2-0.9-0.3-1.2-0.3l-6.7-1.9L160.4,45.8z M163.9,44l4.7-16.7l4,1.1c0.4,0.1,0.8,0.2,1.3,0.4c0.5,0.2,0.9,0.3,1.2,0.5
	c1.1,0.5,1.9,1.3,2.5,2.3c0.5,1,0.8,2.1,0.8,3.4c0,1.3-0.2,2.6-0.5,4c-0.4,1.3-0.9,2.6-1.6,3.6c-0.7,1.1-1.5,1.9-2.5,2.5
	c-1,0.6-2.1,0.8-3.3,0.7c-0.4,0-0.8-0.1-1.3-0.2c-0.5-0.1-0.9-0.2-1.3-0.3L163.9,44z M189.5,56.9c2,1.1,3.9,1.6,5.8,1.5
	c1.9-0.1,3.6-0.8,5.2-1.9c1.6-1.2,2.9-2.8,4-4.8c1.1-2.1,1.7-4.1,1.9-6c0.1-2-0.3-3.8-1.2-5.4c-0.9-1.6-2.4-3-4.4-4.1
	c-2-1.1-3.9-1.6-5.8-1.5c-1.9,0.1-3.6,0.8-5.2,1.9c-1.6,1.2-2.9,2.8-4,4.8c-1.1,2.1-1.7,4.1-1.9,6c-0.1,2,0.3,3.8,1.2,5.4
	C186,54.5,187.5,55.8,189.5,56.9z M190.7,54.6c-1.5-0.8-2.5-1.8-3.2-3.1c-0.6-1.2-0.9-2.6-0.7-4c0.2-1.5,0.7-3,1.6-4.6
	c0.9-1.6,1.9-2.9,3.1-3.8c1.2-0.9,2.4-1.5,3.8-1.6c1.4-0.1,2.8,0.2,4.3,1c1.5,0.8,2.5,1.8,3.2,3.1c0.6,1.2,0.9,2.6,0.7,4
	c-0.2,1.5-0.7,3-1.5,4.6c-0.9,1.6-1.9,2.9-3.1,3.8c-1.2,0.9-2.4,1.5-3.8,1.6C193.6,55.7,192.2,55.4,190.7,54.6z M205.3,66.2l2,1.9
	l16-9.4l-8.6,16.5l2,1.9l20.5-11.9l-2.1-2l-16.1,9.6l8.7-16.5l-2.2-2l-16,9.6l8.7-16.5l-2.1-2L205.3,66.2z M222.7,83.8l1.5,2.4
	l15.1-9.5l-8.8,19.5l1.5,2.4l19.3-12.1l-1.5-2.4l-15.1,9.4l8.7-19.5l-1.5-2.4L222.7,83.8z"/>
</svg>
