<svg width="120" height="120" viewBox="0 0 120 120" fill="none" xmlns="http://www.w3.org/2000/svg">
<circle cx="60" cy="60" r="60" fill="#1977F3"/>
<path fill-rule="evenodd" clip-rule="evenodd" d="M86.1245 61.3355C85.8585 65.985 84.3552 70.4891 81.7579 74.3763C78.883 78.6789 74.7968 82.0324 70.016 84.0126C65.2352 85.9929 59.9745 86.511 54.8993 85.5015C49.824 84.492 45.1621 82.0001 41.503 78.3411C37.844 74.682 35.3521 70.0201 34.3426 64.9448C33.3331 59.8695 33.8512 54.6089 35.8314 49.8281C37.8117 45.0473 41.1652 40.9611 45.4678 38.0862C49.355 35.4889 53.8591 33.9856 58.5085 33.7195V46.8444C56.4503 47.0811 54.4702 47.8044 52.7357 48.9634C50.5844 50.4008 48.9076 52.4439 47.9175 54.8343C46.9274 57.2247 46.6683 59.855 47.1731 62.3927C47.6778 64.9303 48.9238 67.2613 50.7533 69.0908C52.5828 70.9203 54.9138 72.1662 57.4514 72.671C59.9891 73.1758 62.6194 72.9167 65.0098 71.9266C67.4002 70.9364 69.4433 69.2597 70.8807 67.1084C72.0397 65.3739 72.763 63.3938 72.9997 61.3355H86.1245Z" fill="white"/>
<path fill-rule="evenodd" clip-rule="evenodd" d="M86.1603 33.6768H62.375V46.7586H73.0774V57.4615H86.1593L86.1593 46.7586H86.1603V33.6768Z" fill="white"/>
</svg>
