<svg width="120" height="120" viewBox="0 0 120 120" fill="none" xmlns="http://www.w3.org/2000/svg">
<circle cx="60" cy="60" r="60" fill="#FF0000"/>
<path d="M51.5415 64.1277L40.9027 74.8757C39.4245 76.3691 37.0084 76.3584 35.5434 74.8521C34.1101 73.3784 34.1287 71.026 35.585 69.5751L49.8488 55.365C51.3933 53.8263 53.8906 53.8238 55.4382 55.3594L62.1864 62.0554L73.5081 50.5857H65.8123C63.8098 50.5857 62.1864 48.9623 62.1864 46.9598C62.1864 44.9572 63.8098 43.3339 65.8123 43.3339H82.198C84.3871 43.3339 86.1618 45.1085 86.1618 47.2976V63.5353C86.1618 65.6196 84.4721 67.3092 82.3879 67.3092C80.3036 67.3092 78.614 65.6196 78.614 63.5353V55.8395L65.4839 68.9104C63.6511 70.7349 60.6964 70.7608 58.8319 68.9686L53.7671 64.1001C53.1423 63.4995 52.1512 63.5119 51.5415 64.1277Z" fill="white"/>
</svg>
